<?xml version="1.0" encoding="utf-8"?>
<!-- Generator: Adobe Illustrator 15.0.0, SVG Export Plug-In . SVG Version: 6.00 Build 0)  -->
<!DOCTYPE svg PUBLIC "-//W3C//DTD SVG 1.1//EN" "http://www.w3.org/Graphics/SVG/1.1/DTD/svg11.dtd">
<svg version="1.1" id="Layer_1" xmlns="http://www.w3.org/2000/svg" xmlns:xlink="http://www.w3.org/1999/xlink" x="0px" y="0px"
	 width="100px" height="140px" viewBox="0 0 100 140" enable-background="new 0 0 100 140" xml:space="preserve">
<path fill="#FFFFFF" d="M88,12v116H12V12H88 M90,10H10v120h80V10L90,10z"/>
<g>
	<path fill="#FFFFFF" d="M31.416,22.583l6.363-3.185v1.015l-4.348,2.163l4.348,2.189v1.001L31.416,22.583z"/>
	<path fill="#FFFFFF" d="M39.109,25.768v-9.457h1.09v4.342c0.312-0.504,0.689-0.898,1.131-1.184s0.883-0.428,1.324-0.428
		c0.371,0,0.71,0.095,1.017,0.284s0.521,0.419,0.642,0.688c0.098,0.207,0.164,0.427,0.199,0.659s0.053,0.712,0.053,1.438v3.656
		h-1.09v-3.791c0-0.629-0.03-1.044-0.091-1.245s-0.172-0.366-0.334-0.495s-0.339-0.193-0.53-0.193c-0.383,0-0.794,0.182-1.233,0.545
		s-0.802,0.818-1.087,1.365v3.814H39.109z"/>
	<path fill="#FFFFFF" d="M51.783,25.504c-0.512,0.215-0.883,0.343-1.113,0.384s-0.453,0.062-0.668,0.062
		c-0.457,0-0.875-0.088-1.254-0.264s-0.665-0.436-0.858-0.779s-0.29-0.875-0.29-1.594v-2.637h-1.635v-0.908H47.6v-2.637h1.09v2.637
		h2.912v0.908h-2.912v2.619c0,0.527,0.062,0.899,0.188,1.116s0.292,0.376,0.501,0.478s0.456,0.152,0.741,0.152
		c0.527,0,1.082-0.166,1.664-0.498V25.504z"/>
	<path fill="#FFFFFF" d="M53.02,25.768v-6.545h0.955v1.5c0.301-0.637,0.581-1.076,0.841-1.318s0.522-0.363,0.788-0.363
		c0.316,0,0.571,0.124,0.765,0.372s0.29,0.601,0.29,1.058v0.352c0.129-0.398,0.284-0.722,0.466-0.97s0.37-0.445,0.565-0.592
		s0.42-0.22,0.674-0.22c0.281,0,0.521,0.119,0.721,0.357s0.299,0.713,0.299,1.424v4.945h-0.955v-4.471
		c0-0.367-0.012-0.618-0.035-0.753s-0.07-0.237-0.141-0.308s-0.146-0.105-0.229-0.105c-0.203,0-0.421,0.155-0.653,0.466
		s-0.47,0.825-0.712,1.544v3.627H55.75v-4.465c0-0.578-0.057-0.918-0.171-1.02c-0.113-0.102-0.215-0.152-0.306-0.152
		c-0.199,0-0.414,0.174-0.644,0.521s-0.448,0.793-0.655,1.336v3.779H53.02z"/>
	<path fill="#FFFFFF" d="M62.471,25.768v-8.549h-1.957v-0.908h3.047v8.549h2.045v0.908H62.471z"/>
	<path fill="#FFFFFF" d="M73.785,22.583l-6.363,3.185v-1.012l4.35-2.166l-4.35-2.19v-1.001L73.785,22.583z"/>
	<path fill="#FFFFFF" d="M38.617,38.583l6.363-3.185v1.015l-4.348,2.163l4.348,2.189v1.001L38.617,38.583z"/>
	<path fill="#FFFFFF" d="M46.311,41.768v-9.457h1.09v4.342c0.312-0.504,0.689-0.898,1.131-1.184s0.883-0.428,1.324-0.428
		c0.371,0,0.71,0.095,1.017,0.284s0.521,0.419,0.642,0.688c0.098,0.207,0.164,0.427,0.199,0.659s0.053,0.712,0.053,1.438v3.656
		h-1.09v-3.791c0-0.629-0.03-1.044-0.091-1.245s-0.172-0.366-0.334-0.495s-0.339-0.193-0.53-0.193c-0.383,0-0.794,0.182-1.233,0.545
		s-0.802,0.818-1.087,1.365v3.814H46.311z"/>
	<path fill="#FFFFFF" d="M58.955,41.333c-0.871,0.412-1.695,0.617-2.473,0.617c-0.59,0-1.117-0.146-1.582-0.439
		c-0.465-0.293-0.837-0.711-1.116-1.256s-0.419-1.127-0.419-1.748c0-0.597,0.133-1.171,0.398-1.721s0.637-0.979,1.113-1.285
		c0.477-0.306,1.008-0.459,1.594-0.459c0.777,0,1.401,0.277,1.872,0.831c0.471,0.554,0.706,1.408,0.706,2.562v0.234h-4.512
		c0,0.454,0.095,0.869,0.284,1.245s0.438,0.658,0.747,0.846s0.66,0.282,1.055,0.282c0.703,0,1.48-0.235,2.332-0.705V41.333z
		 M54.602,37.854h3.264v-0.158c0-0.534-0.131-0.958-0.393-1.273s-0.611-0.473-1.049-0.473c-0.441,0-0.823,0.161-1.146,0.482
		S54.73,37.227,54.602,37.854z"/>
	<path fill="#FFFFFF" d="M65.016,40.304c-0.333,0.545-0.732,0.956-1.199,1.231c-0.467,0.276-0.896,0.415-1.286,0.415
		c-0.548,0-1.039-0.236-1.475-0.709s-0.653-1.189-0.653-2.15c0-0.758,0.145-1.435,0.434-2.03c0.29-0.596,0.677-1.066,1.162-1.412
		c0.484-0.346,1.085-0.519,1.801-0.519c0.207,0,0.52,0.021,0.937,0.064c0.062,0.008,0.156,0.018,0.28,0.029h1.094v4.622
		c0,0.79,0.084,1.431,0.252,1.923h-1.137C65.137,41.41,65.067,40.922,65.016,40.304z M65.02,39v-2.81
		c-0.388-0.102-0.747-0.152-1.08-0.152c-0.673,0-1.233,0.26-1.682,0.78s-0.672,1.228-0.672,2.124c0,0.649,0.122,1.139,0.367,1.47
		c0.244,0.331,0.523,0.496,0.836,0.496c0.341,0,0.716-0.172,1.127-0.516S64.694,39.583,65.02,39z"/>
	<path fill="#FFFFFF" d="M72.291,40.296c-0.332,0.547-0.732,0.96-1.2,1.237c-0.467,0.277-0.896,0.416-1.287,0.416
		c-0.548,0-1.04-0.236-1.476-0.709c-0.437-0.473-0.654-1.189-0.654-2.15c0-0.758,0.145-1.435,0.435-2.03
		c0.289-0.596,0.676-1.066,1.161-1.412s1.085-0.519,1.801-0.519c0.208,0,0.521,0.021,0.939,0.064
		c0.062,0.008,0.156,0.018,0.281,0.029v-2.912h1.09v9.457h-1.09V40.296z M72.291,39v-2.81c-0.388-0.102-0.747-0.152-1.08-0.152
		c-0.673,0-1.233,0.26-1.682,0.78s-0.672,1.228-0.672,2.124c0,0.649,0.122,1.139,0.367,1.47c0.244,0.331,0.523,0.496,0.836,0.496
		c0.341,0,0.716-0.172,1.127-0.516S71.966,39.583,72.291,39z"/>
	<path fill="#FFFFFF" d="M80.986,38.583l-6.363,3.185v-1.012l4.35-2.166l-4.35-2.19v-1.001L80.986,38.583z"/>
	<path fill="#FFFFFF" d="M45.818,54.583l6.363-3.185v1.015l-4.348,2.163l4.348,2.189v1.001L45.818,54.583z"/>
	<path fill="#FFFFFF" d="M53.02,57.768v-6.545h0.955v1.5c0.301-0.637,0.581-1.076,0.841-1.318s0.522-0.363,0.788-0.363
		c0.316,0,0.571,0.124,0.765,0.372s0.29,0.601,0.29,1.058v0.352c0.129-0.398,0.284-0.722,0.466-0.97s0.37-0.445,0.565-0.592
		s0.42-0.22,0.674-0.22c0.281,0,0.521,0.119,0.721,0.357s0.299,0.713,0.299,1.424v4.945h-0.955v-4.471
		c0-0.367-0.012-0.618-0.035-0.753s-0.07-0.237-0.141-0.308s-0.146-0.105-0.229-0.105c-0.203,0-0.421,0.155-0.653,0.466
		s-0.47,0.825-0.712,1.544v3.627H55.75v-4.465c0-0.578-0.057-0.918-0.171-1.02c-0.113-0.102-0.215-0.152-0.306-0.152
		c-0.199,0-0.414,0.174-0.644,0.521s-0.448,0.793-0.655,1.336v3.779H53.02z"/>
	<path fill="#FFFFFF" d="M66.156,57.333c-0.871,0.412-1.695,0.617-2.473,0.617c-0.59,0-1.117-0.146-1.582-0.439
		c-0.465-0.293-0.837-0.711-1.116-1.256s-0.419-1.127-0.419-1.748c0-0.597,0.133-1.171,0.398-1.721s0.637-0.979,1.113-1.285
		c0.477-0.306,1.008-0.459,1.594-0.459c0.777,0,1.401,0.277,1.872,0.831c0.471,0.554,0.706,1.408,0.706,2.562v0.234h-4.512
		c0,0.454,0.095,0.869,0.284,1.245s0.438,0.658,0.747,0.846s0.66,0.282,1.055,0.282c0.703,0,1.48-0.235,2.332-0.705V57.333z
		 M61.803,53.854h3.264v-0.158c0-0.534-0.131-0.958-0.393-1.273s-0.611-0.473-1.049-0.473c-0.441,0-0.823,0.161-1.146,0.482
		S61.932,53.227,61.803,53.854z"/>
	<path fill="#FFFFFF" d="M73.387,57.504c-0.512,0.215-0.883,0.343-1.113,0.384s-0.453,0.062-0.668,0.062
		c-0.457,0-0.875-0.088-1.254-0.264s-0.665-0.436-0.858-0.779s-0.29-0.875-0.29-1.594v-2.637h-1.635v-0.908h1.635v-2.637h1.09v2.637
		h2.912v0.908h-2.912v2.619c0,0.527,0.062,0.899,0.188,1.116s0.292,0.376,0.501,0.478s0.456,0.152,0.741,0.152
		c0.527,0,1.082-0.166,1.664-0.498V57.504z"/>
	<path fill="#FFFFFF" d="M79.418,56.304c-0.333,0.545-0.732,0.956-1.199,1.231c-0.467,0.276-0.896,0.415-1.286,0.415
		c-0.548,0-1.039-0.236-1.475-0.709s-0.653-1.189-0.653-2.15c0-0.758,0.145-1.435,0.434-2.03c0.29-0.596,0.677-1.066,1.162-1.412
		c0.484-0.346,1.085-0.519,1.801-0.519c0.207,0,0.52,0.021,0.937,0.064c0.062,0.008,0.156,0.018,0.28,0.029h1.094v4.622
		c0,0.79,0.084,1.431,0.252,1.923h-1.137C79.539,57.41,79.47,56.922,79.418,56.304z M79.422,55v-2.81
		c-0.388-0.102-0.747-0.152-1.08-0.152c-0.673,0-1.233,0.26-1.682,0.78s-0.672,1.228-0.672,2.124c0,0.649,0.122,1.139,0.367,1.47
		c0.244,0.331,0.523,0.496,0.836,0.496c0.341,0,0.716-0.172,1.127-0.516S79.097,55.583,79.422,55z"/>
	<path fill="#FFFFFF" d="M45.818,70.584l6.363-3.185v1.016l-4.348,2.164l4.348,2.188v1.002L45.818,70.584z"/>
	<path fill="#FFFFFF" d="M55.27,73.768v-8.548h-1.957v-0.908h3.047v8.548h2.045v0.908H55.27z"/>
	<path fill="#FFFFFF" d="M62.547,73.768v-5.636H60.73v-0.908h2.906v5.636h1.822v0.908H62.547z M62.371,64.859
		c0-0.245,0.084-0.428,0.251-0.549c0.167-0.12,0.325-0.181,0.473-0.181c0.151,0,0.312,0.061,0.479,0.181
		c0.167,0.121,0.251,0.304,0.251,0.549c0,0.241-0.084,0.422-0.251,0.543c-0.167,0.12-0.327,0.181-0.479,0.181
		c-0.147,0-0.306-0.061-0.473-0.181C62.455,65.281,62.371,65.1,62.371,64.859z"/>
	<path fill="#FFFFFF" d="M67.914,73.768v-6.544h1.09v1.43c0.312-0.504,0.689-0.898,1.131-1.184s0.883-0.428,1.324-0.428
		c0.387,0,0.738,0.103,1.055,0.308s0.538,0.474,0.665,0.806s0.19,0.984,0.19,1.957v3.656h-1.09v-3.791
		c0-0.629-0.03-1.044-0.091-1.245s-0.172-0.366-0.334-0.495s-0.339-0.193-0.53-0.193c-0.383,0-0.794,0.182-1.233,0.545
		s-0.802,0.818-1.087,1.365v3.814H67.914z"/>
	<path fill="#FFFFFF" d="M75.408,73.768v-9.457h1.09v5.941l3.146-3.029h1.442l-3.116,3l3.209,3.544h-1.5l-3.182-3.515v3.515H75.408z
		"/>
	<path fill="#FFFFFF" d="M45.818,86.584l6.363-3.186v1.016l-4.348,2.164l4.348,2.188v1.002L45.818,86.584z"/>
	<path fill="#FFFFFF" d="M53.588,89.422v-1.154c0.438,0.285,0.9,0.486,1.389,0.602s0.902,0.172,1.242,0.172
		c0.551,0,0.947-0.088,1.189-0.266s0.363-0.4,0.363-0.666c0-0.176-0.057-0.326-0.17-0.451s-0.395-0.279-0.844-0.463l-0.375-0.152
		l-0.756-0.299c-0.812-0.316-1.324-0.609-1.535-0.879c-0.215-0.266-0.322-0.59-0.322-0.973c0-0.539,0.208-0.982,0.625-1.33
		c0.416-0.348,1.092-0.521,2.026-0.521c0.7,0,1.363,0.102,1.989,0.305v0.99c-0.72-0.258-1.396-0.387-2.03-0.387
		c-0.462,0-0.823,0.082-1.083,0.244c-0.261,0.162-0.391,0.363-0.391,0.605c0,0.234,0.113,0.422,0.34,0.562
		c0.223,0.141,0.586,0.303,1.091,0.486l0.739,0.27c0.677,0.246,1.15,0.514,1.424,0.803c0.271,0.289,0.408,0.65,0.408,1.084
		c0,0.566-0.218,1.033-0.653,1.398s-1.132,0.547-2.089,0.547C55.33,89.949,54.471,89.773,53.588,89.422z"/>
	<path fill="#FFFFFF" d="M66.221,89.58c-0.73,0.246-1.426,0.369-2.086,0.369c-0.656,0-1.239-0.15-1.749-0.453
		s-0.907-0.713-1.192-1.23s-0.428-1.107-0.428-1.768c0-0.992,0.323-1.816,0.97-2.473s1.427-0.984,2.341-0.984
		c0.676,0,1.391,0.127,2.145,0.381v1.049c-0.762-0.348-1.443-0.521-2.045-0.521c-0.398,0-0.773,0.1-1.125,0.297
		s-0.623,0.504-0.814,0.922s-0.287,0.848-0.287,1.289c0,0.59,0.185,1.152,0.554,1.688s0.948,0.803,1.737,0.803
		c0.238,0,0.473-0.016,0.703-0.049s0.656-0.156,1.277-0.367V89.58z"/>
	<path fill="#FFFFFF" d="M68.471,89.768v-6.545h1.09v1.43c0.34-0.539,0.729-0.941,1.169-1.209s0.929-0.402,1.468-0.402
		c0.395,0,0.789,0.061,1.184,0.182v2.361h-1.049V84.09c-0.184-0.031-0.328-0.047-0.434-0.047c-0.406,0-0.805,0.16-1.195,0.48
		s-0.771,0.801-1.143,1.441v3.803H68.471z"/>
	<path fill="#FFFFFF" d="M76.949,89.768v-5.637h-1.816v-0.908h2.906v5.637h1.822v0.908H76.949z M76.773,80.859
		c0-0.246,0.084-0.428,0.251-0.549s0.325-0.182,0.473-0.182c0.151,0,0.312,0.061,0.479,0.182s0.251,0.303,0.251,0.549
		c0,0.24-0.084,0.422-0.251,0.543c-0.167,0.119-0.327,0.18-0.479,0.18c-0.147,0-0.306-0.061-0.473-0.18
		C76.857,81.281,76.773,81.1,76.773,80.859z"/>
	<path fill="#FFFFFF" d="M38.617,102.584l6.363-3.186v1.016l-4.348,2.164l4.348,2.188v1.002L38.617,102.584z"/>
	<path fill="#FFFFFF" d="M46.668,106.043h-1.072l5.778-9.639h1.038L46.668,106.043z"/>
	<path fill="#FFFFFF" d="M53.512,105.768v-9.457h1.09v4.342c0.312-0.504,0.689-0.898,1.131-1.184s0.883-0.428,1.324-0.428
		c0.371,0,0.71,0.096,1.017,0.285s0.521,0.418,0.642,0.688c0.098,0.207,0.164,0.428,0.199,0.66s0.053,0.711,0.053,1.438v3.656h-1.09
		v-3.791c0-0.629-0.03-1.043-0.091-1.244s-0.172-0.367-0.334-0.496s-0.339-0.193-0.53-0.193c-0.383,0-0.794,0.182-1.233,0.545
		s-0.802,0.818-1.087,1.365v3.814H53.512z"/>
	<path fill="#FFFFFF" d="M66.156,105.332c-0.871,0.412-1.695,0.617-2.473,0.617c-0.59,0-1.117-0.146-1.582-0.439
		c-0.465-0.291-0.837-0.711-1.116-1.256c-0.279-0.543-0.419-1.127-0.419-1.746c0-0.598,0.133-1.172,0.398-1.723
		c0.266-0.549,0.637-0.979,1.113-1.283c0.477-0.307,1.008-0.461,1.594-0.461c0.777,0,1.401,0.277,1.872,0.832
		c0.471,0.553,0.706,1.406,0.706,2.561v0.234h-4.512c0,0.455,0.095,0.869,0.284,1.246c0.189,0.375,0.438,0.658,0.747,0.846
		s0.66,0.281,1.055,0.281c0.703,0,1.48-0.234,2.332-0.705V105.332z M61.803,101.854h3.264v-0.158c0-0.533-0.131-0.957-0.393-1.273
		c-0.262-0.314-0.611-0.473-1.049-0.473c-0.441,0-0.823,0.162-1.146,0.482C62.157,100.754,61.932,101.227,61.803,101.854z"/>
	<path fill="#FFFFFF" d="M72.217,104.305c-0.333,0.543-0.732,0.955-1.199,1.23c-0.467,0.277-0.896,0.414-1.286,0.414
		c-0.548,0-1.039-0.236-1.475-0.709s-0.653-1.189-0.653-2.15c0-0.758,0.145-1.434,0.434-2.029c0.29-0.596,0.677-1.066,1.162-1.412
		c0.484-0.346,1.085-0.52,1.801-0.52c0.207,0,0.52,0.021,0.937,0.064c0.062,0.008,0.156,0.018,0.28,0.029h1.094v4.623
		c0,0.789,0.084,1.43,0.252,1.922h-1.137C72.338,105.41,72.269,104.922,72.217,104.305z M72.221,103v-2.811
		c-0.388-0.102-0.747-0.152-1.08-0.152c-0.673,0-1.233,0.26-1.682,0.781c-0.448,0.52-0.672,1.227-0.672,2.123
		c0,0.648,0.122,1.139,0.367,1.469c0.244,0.332,0.523,0.496,0.836,0.496c0.341,0,0.716-0.172,1.127-0.516S71.896,103.582,72.221,103
		z"/>
	<path fill="#FFFFFF" d="M79.492,104.297c-0.332,0.547-0.732,0.959-1.2,1.236c-0.467,0.277-0.896,0.416-1.287,0.416
		c-0.548,0-1.04-0.236-1.476-0.709c-0.437-0.473-0.654-1.189-0.654-2.15c0-0.758,0.145-1.434,0.435-2.029
		c0.289-0.596,0.676-1.066,1.161-1.412s1.085-0.52,1.801-0.52c0.208,0,0.521,0.021,0.939,0.064c0.062,0.008,0.156,0.018,0.281,0.029
		v-2.912h1.09v9.457h-1.09V104.297z M79.492,103v-2.811c-0.388-0.102-0.747-0.152-1.08-0.152c-0.673,0-1.233,0.26-1.682,0.781
		c-0.448,0.52-0.672,1.227-0.672,2.123c0,0.648,0.122,1.139,0.367,1.469c0.244,0.332,0.523,0.496,0.836,0.496
		c0.341,0,0.716-0.172,1.127-0.516S79.167,103.582,79.492,103z"/>
	<path fill="#FFFFFF" d="M38.617,118.584l6.363-3.186v1.016l-4.348,2.164l4.348,2.188v1.002L38.617,118.584z"/>
	<path fill="#FFFFFF" d="M47.318,116.695c0.336-0.549,0.736-0.961,1.201-1.238s0.893-0.416,1.283-0.416
		c0.547,0,1.039,0.236,1.477,0.709s0.656,1.189,0.656,2.15c0,0.758-0.146,1.436-0.437,2.031s-0.679,1.066-1.163,1.412
		s-1.084,0.518-1.799,0.518c-0.203,0-0.516-0.021-0.938-0.064c-0.062-0.008-0.156-0.018-0.281-0.029h-1.09v-9.457h1.09V116.695z
		 M47.318,117.99v2.811c0.395,0.102,0.758,0.152,1.09,0.152c0.66,0,1.216-0.258,1.667-0.777c0.451-0.518,0.677-1.227,0.677-2.127
		c0-0.652-0.123-1.143-0.369-1.471c-0.246-0.33-0.525-0.494-0.838-0.494c-0.34,0-0.714,0.172-1.122,0.518
		C48.015,116.945,47.646,117.408,47.318,117.99z"/>
	<path fill="#FFFFFF" d="M56.204,121.949c-0.937,0-1.687-0.326-2.248-0.98s-0.843-1.48-0.843-2.477s0.281-1.82,0.843-2.473
		s1.312-0.979,2.248-0.979c0.933,0,1.68,0.326,2.242,0.979c0.562,0.652,0.843,1.477,0.843,2.473s-0.281,1.822-0.843,2.477
		C57.884,121.623,57.137,121.949,56.204,121.949z M56.204,121.041c0.581,0,1.043-0.227,1.387-0.68
		c0.343-0.453,0.515-1.076,0.515-1.869c0-0.789-0.172-1.41-0.515-1.863c-0.344-0.453-0.806-0.68-1.387-0.68
		c-0.585,0-1.049,0.227-1.393,0.68c-0.343,0.453-0.515,1.074-0.515,1.863c0,0.793,0.172,1.416,0.515,1.869
		C55.155,120.814,55.619,121.041,56.204,121.041z"/>
	<path fill="#FFFFFF" d="M65.09,120.297c-0.332,0.547-0.732,0.959-1.2,1.236c-0.467,0.277-0.896,0.416-1.287,0.416
		c-0.548,0-1.04-0.236-1.476-0.709c-0.437-0.473-0.654-1.189-0.654-2.15c0-0.758,0.145-1.434,0.435-2.029
		c0.289-0.596,0.676-1.066,1.161-1.412s1.085-0.52,1.801-0.52c0.208,0,0.521,0.021,0.939,0.064c0.062,0.008,0.156,0.018,0.281,0.029
		v-2.912h1.09v9.457h-1.09V120.297z M65.09,119v-2.811c-0.388-0.102-0.747-0.152-1.08-0.152c-0.673,0-1.233,0.26-1.682,0.781
		c-0.448,0.52-0.672,1.227-0.672,2.123c0,0.648,0.122,1.139,0.367,1.469c0.244,0.332,0.523,0.496,0.836,0.496
		c0.341,0,0.716-0.172,1.127-0.516S64.765,119.582,65.09,119z"/>
	<path fill="#FFFFFF" d="M70.324,121.51l-3.022-6.287h1.2l2.408,4.916l2.011-4.916h1.096l-2.531,6.084
		c-0.535,1.281-1.044,2.133-1.527,2.555c-0.482,0.42-1.106,0.631-1.872,0.631c-0.332,0-0.629-0.029-0.891-0.088v-0.961
		c0.301,0.094,0.588,0.141,0.86,0.141c0.352,0,0.664-0.068,0.938-0.203c0.273-0.137,0.523-0.379,0.75-0.725
		c0.226-0.348,0.386-0.646,0.479-0.9L70.324,121.51z"/>
	<path fill="#FFFFFF" d="M80.986,118.584l-6.363,3.184v-1.012l4.35-2.166l-4.35-2.189v-1.002L80.986,118.584z"/>
</g>
<rect x="10.265" y="10" fill="#FFFFFF" width="15.5" height="120"/>
<g>
	<path fill="#0087F7" d="M17.833,26.344v-4.676c-0.219,0.174-0.431,0.321-0.637,0.443c-0.206,0.122-0.488,0.246-0.848,0.373v-0.656
		c0.57-0.242,1.065-0.556,1.484-0.941h0.727v5.457h1.457v0.605h-3.668v-0.605H17.833z"/>
	<path fill="#0087F7" d="M19.864,42.65h-3.668v-0.668c0-0.172,0.035-0.356,0.105-0.553s0.204-0.417,0.402-0.662
		c0.198-0.245,0.407-0.48,0.628-0.707l0.414-0.422c0.083-0.086,0.265-0.285,0.546-0.598s0.466-0.552,0.555-0.719
		c0.09-0.167,0.135-0.331,0.135-0.492c0-0.26-0.104-0.461-0.312-0.604s-0.442-0.213-0.702-0.213c-0.148,0-0.314,0.017-0.498,0.051
		c-0.183,0.034-0.344,0.074-0.481,0.119s-0.361,0.139-0.671,0.279v-0.645c0.328-0.156,0.657-0.264,0.986-0.322
		s0.601-0.088,0.814-0.088c0.315,0,0.605,0.051,0.869,0.154s0.461,0.262,0.59,0.479s0.193,0.447,0.193,0.691
		c0,0.273-0.083,0.553-0.249,0.84c-0.167,0.287-0.479,0.655-0.937,1.105l-0.445,0.441l-0.375,0.367
		c-0.237,0.239-0.428,0.472-0.574,0.695s-0.226,0.491-0.242,0.801h2.914V42.65z"/>
	<path fill="#0087F7" d="M16.181,58.241v-0.766c0.596,0.302,1.113,0.453,1.551,0.453c0.401,0,0.732-0.122,0.994-0.365
		s0.393-0.557,0.393-0.939c0-0.386-0.144-0.699-0.432-0.941s-0.777-0.363-1.467-0.363h-0.402v-0.605h0.559
		c0.508,0,0.875-0.114,1.102-0.342s0.34-0.481,0.34-0.76c0-0.253-0.092-0.466-0.277-0.639s-0.469-0.26-0.852-0.26
		c-0.43,0-0.892,0.121-1.387,0.363v-0.691c0.495-0.185,0.948-0.277,1.359-0.277c0.737,0,1.246,0.146,1.525,0.436
		s0.42,0.622,0.42,0.994c0,0.276-0.074,0.535-0.223,0.777s-0.422,0.458-0.82,0.648c0.352,0.104,0.617,0.231,0.797,0.383
		s0.316,0.329,0.408,0.535s0.139,0.437,0.139,0.691c0,0.567-0.21,1.036-0.631,1.406s-0.964,0.555-1.631,0.555
		c-0.193,0-0.403-0.015-0.631-0.043S16.509,58.378,16.181,58.241z"/>
	<path fill="#0087F7" d="M18.38,74.049v-1.695h-2.578v-0.605l2.578-3.761h0.727v3.761h1.121v0.605h-1.121v1.695H18.38z
		 M18.38,71.748v-2.661l-1.805,2.661H18.38z"/>
	<path fill="#0087F7" d="M16.349,86.602v-2.914h3.395v0.699h-2.668v1.484H17.2c0.873,0,1.544,0.182,2.016,0.547
		c0.471,0.363,0.707,0.855,0.707,1.473c0,0.391-0.095,0.74-0.285,1.051c-0.19,0.309-0.458,0.553-0.805,0.729
		s-0.715,0.264-1.105,0.264s-0.891-0.096-1.5-0.285v-0.793c0.221,0.119,0.469,0.219,0.742,0.295s0.526,0.115,0.758,0.115
		s0.458-0.057,0.68-0.168s0.393-0.275,0.516-0.49s0.184-0.434,0.184-0.656c0-0.377-0.167-0.697-0.502-0.959
		c-0.334-0.26-0.929-0.391-1.783-0.391H16.349z"/>
	<path fill="#0087F7" d="M16.755,102.605c0.188-0.277,0.42-0.506,0.697-0.682s0.583-0.264,0.916-0.264
		c0.315,0,0.614,0.078,0.896,0.23c0.283,0.154,0.498,0.369,0.646,0.643c0.148,0.275,0.223,0.596,0.223,0.959
		c0,0.576-0.184,1.076-0.553,1.502s-0.854,0.639-1.455,0.639c-0.708,0-1.238-0.295-1.588-0.889c-0.35-0.592-0.525-1.346-0.525-2.26
		c0-1.01,0.223-1.809,0.668-2.396c0.445-0.586,1.048-0.881,1.809-0.881c0.409,0,0.806,0.061,1.191,0.18v0.734
		c-0.432-0.205-0.84-0.309-1.223-0.309c-0.542,0-0.961,0.25-1.258,0.746c-0.297,0.498-0.445,1.129-0.445,1.891V102.605z
		 M18.181,105.027c0.195,0,0.392-0.057,0.59-0.174c0.198-0.115,0.354-0.293,0.467-0.535c0.113-0.24,0.17-0.502,0.17-0.787
		c0-0.369-0.096-0.672-0.287-0.91c-0.191-0.236-0.464-0.355-0.818-0.355c-0.367,0-0.668,0.139-0.904,0.412
		c-0.236,0.275-0.354,0.609-0.354,1.002c0,0.396,0.115,0.721,0.346,0.971C17.62,104.902,17.884,105.027,18.181,105.027z"/>
	<path fill="#0087F7" d="M16.86,121.15v-0.543c0-0.426,0.048-0.781,0.145-1.07s0.266-0.611,0.508-0.965
		c0.242-0.355,0.436-0.629,0.582-0.82l0.631-0.838l0.227-0.293c0.172-0.23,0.321-0.498,0.447-0.803h-3.145v-0.73h3.848v0.484
		c0,0.191-0.039,0.371-0.115,0.535s-0.309,0.514-0.697,1.051c-0.093,0.127-0.186,0.256-0.276,0.383l-0.409,0.568
		c-0.26,0.367-0.453,0.66-0.577,0.879c-0.125,0.219-0.219,0.447-0.283,0.686c-0.064,0.236-0.096,0.547-0.096,0.934v0.543H16.86z"/>
</g>
</svg>
