<?xml version="1.0" encoding="utf-8"?>
<!-- Generator: Adobe Illustrator 15.0.0, SVG Export Plug-In . SVG Version: 6.00 Build 0)  -->
<!DOCTYPE svg PUBLIC "-//W3C//DTD SVG 1.1//EN" "http://www.w3.org/Graphics/SVG/1.1/DTD/svg11.dtd">
<svg version="1.1" id="Layer_1" xmlns="http://www.w3.org/2000/svg" xmlns:xlink="http://www.w3.org/1999/xlink" x="0px" y="0px"
	 width="100px" height="140px" viewBox="0 0 100 140" enable-background="new 0 0 100 140" xml:space="preserve">
<g>
	<g opacity="0.25">
		<rect x="51" y="11" fill="none" width="19" height="18"/>
		<rect x="21" y="11" fill="none" width="8" height="18"/>
		<rect x="39" y="11" fill="none" width="10" height="18"/>
		<rect x="30" y="11" fill="none" width="7" height="18"/>
		<polygon fill="none" points="37,30 31,30 31,35 29,35 29,30 21,30 21,37 37,37 		"/>
		<rect x="21" y="57" fill="none" width="16" height="7"/>
		<rect x="21" y="104" fill="none" width="16" height="7"/>
		<rect x="21" y="39" fill="none" width="16" height="16"/>
		<rect x="11" y="30" fill="none" width="8" height="7"/>
		<rect x="11" y="11" fill="none" width="8" height="18"/>
		<rect x="11" y="104" fill="none" width="8" height="7"/>
		<rect x="11" y="113" fill="none" width="8" height="16"/>
		<rect x="11" y="66" fill="none" width="8" height="36"/>
		<rect x="11" y="57" fill="none" width="8" height="7"/>
		<rect x="11" y="39" fill="none" width="8" height="16"/>
		<rect x="81" y="39" fill="none" width="8" height="16"/>
		<rect x="81" y="57" fill="none" width="8" height="7"/>
		<rect x="81" y="30" fill="none" width="8" height="7"/>
		<rect x="81" y="66" fill="none" width="8" height="36"/>
		<rect x="81" y="11" fill="none" width="8" height="18"/>
		<rect x="81" y="104" fill="none" width="8" height="7"/>
		<rect x="39" y="57" fill="none" width="40" height="7"/>
		<rect x="39" y="39" fill="none" width="40" height="16"/>
		<polygon fill="none" points="21,66 21,102 38,102 79,102 79,66 38,66 		"/>
		<rect x="39" y="104" fill="none" width="40" height="7"/>
		<rect x="81" y="113" fill="none" width="8" height="16"/>
		<rect x="71" y="11" fill="none" width="8" height="18"/>
		<polygon fill="none" points="71,35 69,35 69,30 51,30 51,35 50,35 49,35 49,30 39,30 39,37 79,37 79,30 71,30 		"/>
		<path fill="#FFFFFF" d="M100,12v-2H90V0h-2v10h-7V5h-2v5h-8V5h-2v5H51V5h-1h-1v5H39V5h-2v5h-6V5h-2v5h-8V5h-2v5h-7V0h-2v10H0v2h10
			v16H0v2h10v7H5v2h5v16H5v2h5v7H5v2h5v36H5v2h5v7H5v2h5v15H0v2h10v10h2v-10h7v5h2v-5h16v5h2v-5h40v5h2v-5h7v10h2v-10h10v-2H90v-15
			h5v-2h-5v-7h5v-2h-5V66h5v-2h-5v-7h5v-2h-5V39h5v-2h-5v-7h10v-2H90V12H100z M19,129h-8v-16h8V129z M19,111h-8v-7h8V111z M19,102
			h-8V66h8V102z M19,64h-8v-7h8V64z M19,55h-8V39h8V55z M19,37h-8v-7h8V37z M19,29h-8V11h8V29z M51,11h19v18H51V11z M39,11h10v18H39
			V11z M30,11h7v18h-7V11z M21,11h8v18h-8V11z M21,30h8v5h2v-5h6v7H21V30z M21,39h16v16H21V39z M21,57h16v7H21V57z M21,104h16v7H21
			V104z M79,129H38H21v-16h17h41V129z M79,111H39v-7h40V111z M21,102V66h58v36 M79,64H39v-7h40V64z M79,55H39V39h40V55z M79,37H39
			v-7h10v5h1h1v-5h18v5h2v-5h8V37z M79,29h-8V11h8V29z M89,129h-8v-16h8V129z M89,111h-8v-7h8V111z M89,102h-8V66h8V102z M89,64h-8
			v-7h8V64z M89,55h-8V39h8V55z M89,37h-8v-7h8V37z M89,29h-8V11h8V29z"/>
	</g>
	<g>
		<path fill="#FFFFFF" d="M10,10v1v1v16v2v98v1v1h9h62h9v-1v-1V30v-2V12v-1v-1H10z M51,12h18v16H51V12z M31,12h18v16H31V12z M12,12
			h17v16H12V12z M79,128H21v-15h58V128z M88,128h-7v-17H19v17h-7V30h76V128z M88,28H71V12h17V28z"/>
		<rect x="19" y="37" fill="#FFFFFF" width="20" height="20"/>
		<path fill="#FFFFFF" d="M81,64H19v40h62V64z M79,102H21V66h58V102z"/>
		<rect x="46" y="37" fill="#FFFFFF" width="27" height="2"/>
		<rect x="46" y="42" fill="#FFFFFF" width="35" height="1"/>
		<rect x="46" y="45" fill="#FFFFFF" width="35" height="1"/>
		<rect x="46" y="48" fill="#FFFFFF" width="22" height="1"/>
		<polygon fill="#FFFFFF" points="49,71 62,71 62,69 24,69 24,70 24,71 24,75 49,75 		"/>
		<rect x="24" y="79" fill="#FFFFFF" width="52" height="1"/>
		<rect x="24" y="83" fill="#FFFFFF" width="52" height="1"/>
		<rect x="24" y="87" fill="#FFFFFF" width="52" height="1"/>
		<rect x="24" y="91" fill="#FFFFFF" width="35" height="1"/>
		<polygon fill="#FFFFFF" points="38,118 76,118 76,116 24,116 24,117 24,118 24,122 38,122 		"/>
		<rect x="24" y="126" fill="#FFFFFF" width="52" height="1"/>
	</g>
</g>
</svg>
